<svg width="56" height="56" viewBox="0 0 56 56" fill="none" xmlns="http://www.w3.org/2000/svg">
<path d="M4.66666 51.3334V16.3334C4.66666 15.7145 4.91249 15.121 5.35007 14.6834C5.78766 14.2459 6.38115 14 6.99999 14H16.3333V4.66669H39.6667V14H49C49.6188 14 50.2123 14.2459 50.6499 14.6834C51.0875 15.121 51.3333 15.7145 51.3333 16.3334V51.3334H32.6667V39.6667H23.3333V51.3334H4.66666ZM21 9.33335V23.3334H25.6667V18.6667H30.3333V23.3334H35V9.33335H30.3333V14H25.6667V9.33335H21ZM9.33332 46.6667H18.6667V39.6667H9.33332V46.6667ZM9.33332 35H18.6667V28H9.33332V35ZM37.3333 46.6667H46.6667V39.6667H37.3333V46.6667ZM37.3333 35H46.6667V28H37.3333V35ZM23.3333 35H32.6667V28H23.3333V35Z" fill="#97C7FF"/>
</svg>
