<svg width="56" height="56" viewBox="0 0 56 56" fill="none" xmlns="http://www.w3.org/2000/svg">
<path d="M53.6667 23.3333C53.6667 22.0956 53.175 20.9087 52.2998 20.0335C51.4247 19.1583 50.2377 18.6666 49 18.6666H34.2533L36.4933 8.00331C36.54 7.76998 36.5633 7.51331 36.5633 7.25665C36.5633 6.29998 36.1667 5.41331 35.5367 4.78331L33.0633 2.33331L17.71 17.6866C16.8467 18.55 16.3333 19.7166 16.3333 21V44.3333C16.3333 45.571 16.825 46.758 17.7002 47.6331C18.5753 48.5083 19.7623 49 21 49H42C43.9367 49 45.5933 47.8333 46.2933 46.1533L53.34 29.7033C53.55 29.1666 53.6667 28.6066 53.6667 28V23.3333ZM2.33334 49H11.6667V21H2.33334V49Z" fill="#97C7FF"/>
</svg>
