<svg width="56" height="56" viewBox="0 0 56 56" fill="none" xmlns="http://www.w3.org/2000/svg">
<path d="M4.66666 11.6667V44.3334H51.3333V11.6667H4.66666ZM16.3333 39.6667C16.3333 37.8102 15.5958 36.0297 14.2831 34.7169C12.9703 33.4042 11.1898 32.6667 9.33333 32.6667V23.3334C11.1898 23.3334 12.9703 22.5959 14.2831 21.2831C15.5958 19.9703 16.3333 18.1899 16.3333 16.3334H39.6667C39.6667 18.1899 40.4042 19.9703 41.7169 21.2831C43.0297 22.5959 44.8101 23.3334 46.6667 23.3334V32.6667C44.8101 32.6667 43.0297 33.4042 41.7169 34.7169C40.4042 36.0297 39.6667 37.8102 39.6667 39.6667H16.3333ZM28 21C30.5667 21 32.6667 24.0334 32.6667 28C32.6667 31.9667 30.5667 35 28 35C25.4333 35 23.3333 31.9667 23.3333 28C23.3333 24.0334 25.4333 21 28 21Z" fill="#97C7FF"/>
</svg>
