<svg width="56" height="56" viewBox="0 0 56 56" fill="none" xmlns="http://www.w3.org/2000/svg">
<path d="M49.8313 11.5063L28.8313 4.50626C28.291 4.33076 27.709 4.33076 27.1688 4.50626L6.2125 11.4844H6.16875L6.05938 11.5281L5.92813 11.5938L5.775 11.6594L5.6875 11.7031L5.55625 11.7906L5.49063 11.8344L5.35938 11.9219C5.35938 11.9335 5.35477 11.9446 5.34656 11.9528C5.33836 11.961 5.32723 11.9656 5.31563 11.9656L5.1625 12.0969C5.1625 12.1027 5.1602 12.1082 5.1561 12.1124C5.15199 12.1165 5.14643 12.1188 5.14063 12.1188L4.9875 12.2938L4.94375 12.3594C4.92091 12.374 4.90134 12.3933 4.88628 12.4159C4.87123 12.4384 4.861 12.4639 4.85625 12.4906L4.79063 12.5563L4.725 12.6656C4.70313 12.7094 4.68125 12.7313 4.68125 12.7531L4.61563 12.8844L4.57188 12.9719L4.50625 13.1688C4.49144 13.1955 4.4839 13.2257 4.48438 13.2563C4.46006 13.304 4.44521 13.356 4.44063 13.4094C4.44063 13.4313 4.41875 13.475 4.41875 13.4969C4.41875 13.5188 4.39688 13.6063 4.39688 13.65V13.7375C4.37671 13.8235 4.36934 13.9119 4.375 14V31.5C4.375 32.1962 4.65157 32.8639 5.14385 33.3562C5.63613 33.8484 6.30381 34.125 7 34.125C7.6962 34.125 8.36388 33.8484 8.85616 33.3562C9.34844 32.8639 9.625 32.1962 9.625 31.5V17.6313L14.8094 19.3813C13.2088 22.4475 12.7285 25.9761 13.4513 29.3586C14.1741 32.741 16.0547 35.7652 18.7688 37.9094C15.0554 39.6369 11.9022 42.3732 9.66875 45.8063C9.47916 46.095 9.34828 46.4182 9.2836 46.7575C9.21892 47.0967 9.2217 47.4454 9.29178 47.7837C9.36186 48.1219 9.49786 48.443 9.69203 48.7286C9.88621 49.0142 10.1347 49.2589 10.4234 49.4484C10.7121 49.638 11.0354 49.7689 11.3746 49.8336C11.7139 49.8983 12.0626 49.8955 12.4008 49.8254C12.739 49.7553 13.0601 49.6193 13.3458 49.4252C13.6314 49.231 13.876 48.9825 14.0656 48.6938C15.5719 46.3688 17.6359 44.4577 20.0697 43.1345C22.5036 41.8114 25.2298 41.1182 28 41.1182C30.7702 41.1182 33.4964 41.8114 35.9303 43.1345C38.3641 44.4577 40.4281 46.3688 41.9344 48.6938C42.1764 49.0578 42.5049 49.3562 42.8905 49.5623C43.276 49.7685 43.7066 49.8759 44.1438 49.875C44.6478 49.8758 45.1414 49.7316 45.5656 49.4594C46.15 49.0751 46.5585 48.4752 46.702 47.7907C46.8454 47.1063 46.7121 46.3928 46.3313 45.8063C44.0978 42.3732 40.9446 39.6369 37.2313 37.9094C39.9453 35.7652 41.8259 32.741 42.5487 29.3586C43.2715 25.9761 42.7912 22.4475 41.1906 19.3813L49.8313 16.4938C50.3564 16.3211 50.8137 15.9871 51.1379 15.5393C51.4621 15.0915 51.6366 14.5528 51.6366 14C51.6366 13.4472 51.4621 12.9085 51.1379 12.4607C50.8137 12.0129 50.3564 11.6789 49.8313 11.5063ZM28 9.75626L40.7094 14L36.1594 15.5094L28 18.2438L19.8406 15.5094L15.2906 14L28 9.75626ZM37.625 26.25C37.6235 27.7438 37.2743 29.2168 36.605 30.5524C35.9358 31.8879 34.9649 33.0493 33.7691 33.9447C32.5734 34.8401 31.1856 35.4449 29.7157 35.7112C28.2458 35.9774 26.7341 35.8979 25.3002 35.4789C23.8663 35.0599 22.5497 34.3128 21.4545 33.297C20.3592 32.2811 19.5155 31.0242 18.9901 29.6258C18.4646 28.2274 18.2719 26.7259 18.4271 25.2402C18.5823 23.7544 19.0813 22.3252 19.8844 21.0656L27.1688 23.4938C27.709 23.6693 28.291 23.6693 28.8313 23.4938L36.1156 21.0656C37.1065 22.6128 37.6305 24.4127 37.625 26.25Z" fill="#97C7FF"/>
</svg>
