<svg width="25" height="33" viewBox="0 0 25 33" fill="none" xmlns="http://www.w3.org/2000/svg">
<path d="M12.5 16.1414C13.3594 16.1414 14.0953 15.8297 14.7078 15.2061C15.3193 14.5836 15.625 13.8349 15.625 12.96C15.625 12.0851 15.3193 11.3359 14.7078 10.7124C14.0953 10.0899 13.3594 9.77861 12.5 9.77861C11.6406 9.77861 10.9052 10.0899 10.2938 10.7124C9.68125 11.3359 9.375 12.0851 9.375 12.96C9.375 13.8349 9.68125 14.5836 10.2938 15.2061C10.9052 15.8297 11.6406 16.1414 12.5 16.1414ZM12.5 32.0485C8.30729 28.4164 5.17604 25.0425 3.10625 21.9268C1.03542 18.8122 0 15.9293 0 13.2782C0 9.3014 1.25677 6.13324 3.77031 3.7737C6.28281 1.41415 9.19271 0.234375 12.5 0.234375C15.8073 0.234375 18.7172 1.41415 21.2297 3.7737C23.7432 6.13324 25 9.3014 25 13.2782C25 15.9293 23.9651 18.8122 21.8953 21.9268C19.8245 25.0425 16.6927 28.4164 12.5 32.0485Z" fill="black"/>
</svg>
