<svg width="26" height="27" viewBox="0 0 26 27" fill="none" xmlns="http://www.w3.org/2000/svg">
<path d="M1.51667 26.6828C1.08333 26.6828 0.722222 26.5346 0.433333 26.2381C0.144444 25.9416 0 25.571 0 25.1263V19.1227C0 18.7768 0.108333 18.4739 0.325 18.214C0.541667 17.9551 0.818518 17.7885 1.15556 17.7144L6.13889 16.6768C6.47593 16.6273 6.81922 16.658 7.16878 16.7687C7.51737 16.8803 7.8 17.0474 8.01667 17.2697L11.4111 20.7533C13.2407 19.6168 14.9139 18.2703 16.4306 16.7138C17.9472 15.1573 19.2111 13.4896 20.2222 11.7108L16.7556 8.07896C16.5389 7.85661 16.4002 7.60312 16.3396 7.3185C16.2799 7.03487 16.2741 6.72012 16.3222 6.37423L17.2611 1.1859C17.3093 0.840014 17.4657 0.555892 17.7306 0.333535C17.9954 0.111178 18.2963 0 18.6333 0H24.4833C24.9167 0 25.2778 0.148238 25.5667 0.444713C25.8556 0.741189 26 1.11178 26 1.5565C26 4.74361 25.3076 7.85018 23.9229 10.8762C22.5391 13.9032 20.7095 16.5839 18.434 18.9181C16.1595 21.2534 13.5479 23.131 10.5993 24.5512C7.64978 25.9723 4.62222 26.6828 1.51667 26.6828Z" fill="black"/>
</svg>
